# xmcd
#
# Track frame offsets:
#	150
#	19300
#	37486
#	53058
#	70881
#	86910
#	103240
#	119472
#	138349
#	156505
#
# Disc length: 2448 seconds
#
# Revision: 0
# Processed by: cddbd v1.5.2PL0 Copyright (c) Steve Scherf et al.
# Submitted via: audiograbber 1.83.01
#
DISCID=98098e0a
DTITLE=Ronnie Milsap - Keyed Up
DYEAR=1983
DGENRE=Country
TTITLE0=Stranger in my house
TTITLE1=Show her
TTITLE2=Don't your memory ever sleep at night
TTITLE3=Watch out for the other guy
TTITLE4=I'm just a redneck at heart
TTITLE5=Don't you know how much I love you
TTITLE6=Feelings change
TTITLE7=Like children I have known
TTITLE8=Is it over
TTITLE9=We're here to love
EXTD=(c)1983 RCA Records\nPL 14670/RCA LP 6077
EXTT0=
EXTT1=
EXTT2=
EXTT3=
EXTT4=
EXTT5=
EXTT6=
EXTT7=
EXTT8=
EXTT9=
PLAYORDER=
